<svg width="16" height="16" viewBox="0 0 16 16" xmlns="http://www.w3.org/2000/svg" xmlns:xlink="http://www.w3.org/1999/xlink" fill="currentColor" overflow="hidden"><path d="M1.293 1.293C1.6835 0.902618 2.3165 0.902618 2.707 1.293L8 6.586 13.293 1.293C13.6767 0.895748 14.3097 0.884745 14.707 1.26842 15.1043 1.6521 15.1153 2.28517 14.7316 2.68242 14.7235 2.69076 14.7153 2.69895 14.707 2.707L9.414 8 14.707 13.293C15.0907 13.6903 15.0797 14.3233 14.6824 14.707 14.2949 15.0813 13.6805 15.0813 13.293 14.707L8 9.414 2.707 14.707C2.30975 15.0907 1.67668 15.0797 1.293 14.6824 0.918718 14.2949 0.918718 13.6805 1.293 13.293L6.586 8 1.293 2.707C0.902618 2.3165 0.902618 1.6835 1.293 1.293Z" fill="#FF0000"/></svg>